<svg xmlns="http://www.w3.org/2000/svg" viewBox="-136.654 -13.3854 236.7 15.39">
	<path d="M 0 0 L 10 0 C 9 -2 9 1.3333 7 -1 C 4 -1 2 1.6667 1 1 M 11 0 L 20 1 C 18.6667 0.3333 17.3333 0.6667 22 -1 C 20.6667 0.6667 25.3333 0.3333 30 0 M 33 0 L 47 0 C 46 -0.3333 45 -0.6667 40 2 C 41 -1 38 -1 47 -2 M -12 0 C -15 0 -2 -1 -21 0 S -13 0 -21 -1 M -11 -4 L -1 -3 M -3 -2 L 0 -2 C -11 -3 -17 -2 -13 -1 M -24 -5 L -22 -4 C -16 -4 -20.3333 -4.3333 -16 -4 S -45 -3 -28 -5 M -57 1 L -44 0 C -69.3333 -2.6667 -71 -2 -72 -4 Q -53 -1 -72 1 M -101 0 L -83 0 C -85.3333 -1.3333 -99 1 -90 -6 M -73 -10 C -85 -8 -43 -6 -40 -9 M -21 -10 C 41 -15 -10 -14 55 -10 M 56 -10 Q 82 -4 100 -8 Q 43 -16 89 -8 M 65 -2 Q 69 -1.5 80 -2 Q 51 -4 50 2 M -112 0 C -98 -7 -146 3 -135 -5 M -135 -5 C -57 -5 -128.3333 -5 -98 -2" fill="#000000"/>
</svg>